<svg xmlns="http://www.w3.org/2000/svg" xmlns:xlink="http://www.w3.org/1999/xlink" width="150" zoomAndPan="magnify" viewBox="0 0 375 374.999991" height="150" preserveAspectRatio="xMidYMid meet" version="1.0"><defs><g/><clipPath id="11fb4b798a"><path d="M 196 172 L 245.449219 172 L 245.449219 208 L 196 208 Z M 196 172 " clip-rule="nonzero"/></clipPath><clipPath id="440f21a737"><path d="M 142 90.714844 L 245.449219 90.714844 L 245.449219 136 L 142 136 Z M 142 90.714844 " clip-rule="nonzero"/></clipPath><clipPath id="3d17098aff"><path d="M 129.199219 119 L 167 119 L 167 165 L 129.199219 165 Z M 129.199219 119 " clip-rule="nonzero"/></clipPath><clipPath id="60a206c461"><path d="M 130 166 L 215 166 L 215 218.964844 L 130 218.964844 Z M 130 166 " clip-rule="nonzero"/></clipPath></defs><g clip-path="url(#11fb4b798a)"><path fill="#051d40" d="M 222.765625 178.730469 C 222.765625 180.199219 221.570312 181.398438 220.101562 181.398438 C 218.628906 181.398438 217.433594 180.199219 217.433594 178.730469 C 217.433594 177.257812 218.628906 176.058594 220.101562 176.058594 C 221.570312 176.058594 222.765625 177.257812 222.765625 178.730469 Z M 245.421875 178.730469 C 245.421875 176.339844 243.488281 174.402344 241.097656 174.402344 C 239.140625 174.402344 237.488281 175.703125 236.957031 177.492188 L 225.71875 177.492188 C 225.152344 174.90625 222.851562 172.96875 220.101562 172.96875 C 216.921875 172.96875 214.34375 175.546875 214.34375 178.730469 C 214.34375 180.191406 214.890625 181.523438 215.785156 182.542969 C 212.558594 185.558594 208.863281 187.960938 204.859375 189.671875 C 204.367188 187.824219 202.6875 186.457031 200.6875 186.457031 C 198.300781 186.457031 196.363281 188.398438 196.363281 190.785156 C 196.363281 193.175781 198.300781 195.113281 200.6875 195.113281 C 202.5 195.113281 204.050781 193.996094 204.691406 192.410156 C 209.542969 190.511719 213.996094 187.679688 217.820312 184.019531 C 218.152344 184.164062 218.503906 184.277344 218.863281 184.355469 L 218.863281 196.078125 C 217.65625 196.34375 216.59375 196.984375 215.800781 197.878906 L 207.273438 193.097656 L 206.066406 195.257812 L 214.59375 200.035156 C 214.433594 200.5625 214.34375 201.125 214.34375 201.703125 C 214.34375 204.886719 216.921875 207.464844 220.101562 207.464844 C 223.277344 207.464844 225.851562 204.886719 225.851562 201.703125 C 225.851562 198.949219 223.917969 196.644531 221.335938 196.078125 L 221.335938 184.355469 C 223.488281 183.882812 225.191406 182.203125 225.695312 180.058594 L 236.984375 180.058594 C 237.285156 180.992188 237.890625 181.785156 238.6875 182.320312 C 235.464844 188.007812 231.304688 193.011719 226.460938 197.171875 C 226.960938 197.871094 227.347656 198.65625 227.59375 199.5 C 233.0625 194.890625 237.636719 189.324219 241.105469 183.058594 C 243.488281 183.054688 245.421875 181.117188 245.421875 178.730469 " fill-opacity="1" fill-rule="nonzero"/></g><g clip-path="url(#440f21a737)"><path fill="#1976d2" d="M 242.332031 129.660156 C 242.332031 131.132812 241.136719 132.328125 239.667969 132.328125 C 238.199219 132.328125 237 131.132812 237 129.660156 C 237 128.191406 238.199219 126.992188 239.667969 126.992188 C 241.136719 126.992188 242.332031 128.191406 242.332031 129.660156 Z M 217.976562 108.121094 C 215.90625 108.121094 214.222656 106.433594 214.222656 104.359375 C 214.222656 102.285156 215.90625 100.597656 217.976562 100.597656 C 220.050781 100.597656 221.734375 102.285156 221.734375 104.359375 C 221.734375 106.433594 220.050781 108.121094 217.976562 108.121094 Z M 184.207031 96.476562 C 184.207031 97.945312 183.011719 99.144531 181.539062 99.144531 C 180.070312 99.144531 178.875 97.945312 178.875 96.476562 C 178.875 95.003906 180.070312 93.804688 181.539062 93.804688 C 183.011719 93.804688 184.207031 95.003906 184.207031 96.476562 Z M 177.421875 118.636719 C 177.421875 120.710938 175.738281 122.398438 173.667969 122.398438 C 171.59375 122.398438 169.910156 120.710938 169.910156 118.636719 C 169.910156 116.5625 171.59375 114.875 173.667969 114.875 C 175.738281 114.875 177.421875 116.5625 177.421875 118.636719 Z M 245.421875 129.660156 C 245.421875 126.480469 242.847656 123.898438 239.667969 123.898438 C 236.59375 123.898438 234.082031 126.316406 233.921875 129.355469 L 224.058594 129.355469 C 223.503906 128.097656 222.375 127.152344 221.003906 126.859375 L 219.828125 112.023438 C 220.796875 111.789062 221.695312 111.375 222.488281 110.820312 L 233.023438 121.757812 L 234.800781 120.039062 L 224.265625 109.105469 C 225.261719 107.785156 225.851562 106.140625 225.851562 104.359375 C 225.851562 100.003906 222.328125 96.476562 217.976562 96.476562 C 215.15625 96.476562 212.679688 97.964844 211.289062 100.199219 C 204.539062 97.546875 197.316406 96.167969 189.949219 96.167969 C 189.058594 96.167969 188.171875 96.1875 187.289062 96.226562 C 187.160156 93.160156 184.636719 90.714844 181.539062 90.714844 C 178.363281 90.714844 175.785156 93.292969 175.785156 96.476562 C 175.785156 96.949219 175.84375 97.410156 175.953125 97.851562 C 167.03125 100.035156 158.753906 104.304688 151.707031 110.421875 C 152.230469 111.105469 152.621094 111.898438 152.835938 112.757812 C 159.652344 106.710938 167.945312 102.292969 177.097656 100.132812 C 177.492188 100.613281 177.964844 101.027344 178.492188 101.359375 L 175.109375 110.890625 C 174.640625 110.800781 174.160156 110.753906 173.667969 110.753906 C 170.171875 110.753906 167.210938 113.035156 166.183594 116.1875 L 150.929688 113.742188 C 150.652344 111.621094 148.84375 109.980469 146.644531 109.980469 C 144.257812 109.980469 142.324219 111.917969 142.324219 114.308594 C 142.324219 116.699219 144.257812 118.636719 146.644531 118.636719 C 148.363281 118.636719 149.839844 117.636719 150.539062 116.183594 L 165.792969 118.628906 L 165.792969 118.636719 C 165.792969 122.992188 169.316406 126.523438 173.667969 126.523438 C 178.015625 126.523438 181.539062 122.992188 181.539062 118.636719 C 181.539062 115.652344 179.882812 113.054688 177.4375 111.714844 L 180.820312 102.191406 C 181.058594 102.21875 181.296875 102.234375 181.539062 102.234375 C 182.824219 102.234375 184.007812 101.816406 184.964844 101.105469 L 197.09375 111.6875 L 198.71875 109.820312 L 186.589844 99.238281 C 186.679688 99.074219 186.761719 98.90625 186.835938 98.730469 C 187.867188 98.675781 188.902344 98.640625 189.949219 98.640625 C 197.03125 98.640625 203.929688 100 210.324219 102.515625 C 210.179688 103.109375 210.105469 103.722656 210.105469 104.359375 C 210.105469 108.503906 213.300781 111.902344 217.363281 112.214844 L 218.457031 126.015625 C 215.296875 122.859375 211.683594 120.28125 207.75 118.351562 C 207.773438 118.171875 207.789062 117.992188 207.789062 117.808594 C 207.789062 115.417969 205.851562 113.480469 203.464844 113.480469 C 201.945312 113.480469 200.613281 114.265625 199.84375 115.453125 C 196.652344 114.652344 193.332031 114.234375 189.949219 114.234375 C 187.527344 114.234375 185.15625 114.449219 182.851562 114.863281 C 183.164062 115.621094 183.386719 116.425781 183.503906 117.261719 C 185.597656 116.902344 187.75 116.710938 189.949219 116.710938 C 193.09375 116.710938 196.175781 117.09375 199.144531 117.828125 C 199.15625 120.210938 201.085938 122.136719 203.464844 122.136719 C 204.78125 122.136719 205.957031 121.546875 206.75 120.617188 C 210.53125 122.484375 214 124.992188 217.011719 128.066406 C 216.246094 128.847656 215.777344 129.914062 215.777344 131.09375 C 215.777344 133.484375 217.710938 135.421875 220.097656 135.421875 C 222.234375 135.421875 224.003906 133.867188 224.355469 131.828125 L 234.335938 131.828125 C 235.191406 133.9375 237.257812 135.421875 239.667969 135.421875 C 242.847656 135.421875 245.421875 132.84375 245.421875 129.660156 " fill-opacity="1" fill-rule="nonzero"/></g><g clip-path="url(#3d17098aff)"><path fill="#1976d2" d="M 135.820312 139.75 C 135.820312 141 134.804688 142.015625 133.554688 142.015625 C 132.304688 142.015625 131.289062 141 131.289062 139.75 C 131.289062 138.5 132.304688 137.484375 133.554688 137.484375 C 134.804688 137.484375 135.820312 138.5 135.820312 139.75 Z M 150.199219 153.214844 C 152.269531 153.214844 153.953125 154.902344 153.953125 156.972656 C 153.953125 159.046875 152.269531 160.734375 150.199219 160.734375 C 148.125 160.734375 146.441406 159.046875 146.441406 156.972656 C 146.441406 154.902344 148.125 153.214844 150.199219 153.214844 Z M 166.152344 125.128906 C 165.613281 124.503906 165.148438 123.8125 164.777344 123.066406 C 162.101562 125.203125 159.703125 127.675781 157.640625 130.417969 C 156.945312 129.941406 156.105469 129.660156 155.203125 129.660156 C 152.859375 129.660156 150.957031 131.527344 150.886719 133.859375 L 137.238281 137.488281 C 137.117188 137.296875 136.984375 137.113281 136.839844 136.941406 C 138.832031 130.988281 141.792969 125.476562 145.539062 120.601562 C 144.660156 120.445312 143.839844 120.109375 143.125 119.632812 C 139.46875 124.507812 136.628906 129.875 134.667969 135.570312 C 134.3125 135.476562 133.941406 135.421875 133.554688 135.421875 C 131.167969 135.421875 129.230469 137.359375 129.230469 139.75 C 129.230469 141.710938 130.535156 143.363281 132.320312 143.894531 L 132.320312 164.859375 L 134.789062 164.859375 L 134.789062 143.894531 C 136.535156 143.375 137.8125 141.78125 137.871094 139.878906 L 151.519531 136.25 C 151.929688 136.917969 152.515625 137.464844 153.210938 137.828125 C 151.59375 141.34375 150.46875 145.128906 149.914062 149.097656 C 145.699219 149.246094 142.324219 152.714844 142.324219 156.972656 C 142.324219 161.328125 145.847656 164.859375 150.199219 164.859375 C 154.546875 164.859375 158.070312 161.328125 158.070312 156.972656 C 158.070312 153.375 155.660156 150.339844 152.367188 149.394531 C 152.917969 145.46875 154.074219 141.730469 155.734375 138.28125 C 157.871094 138.019531 159.523438 136.199219 159.523438 133.988281 C 159.523438 133.4375 159.417969 132.910156 159.230469 132.425781 C 161.207031 129.699219 163.535156 127.246094 166.152344 125.128906 " fill-opacity="1" fill-rule="nonzero"/></g><g clip-path="url(#60a206c461)"><path fill="#051d40" d="M 196.570312 211.082031 C 196.570312 213.152344 194.882812 214.839844 192.8125 214.839844 C 190.742188 214.839844 189.054688 213.152344 189.054688 211.082031 C 189.054688 209.007812 190.742188 207.316406 192.8125 207.316406 C 194.882812 207.316406 196.570312 209.007812 196.570312 211.082031 Z M 183.804688 191.617188 C 183.804688 192.867188 182.789062 193.882812 181.542969 193.882812 C 180.292969 193.882812 179.277344 192.867188 179.277344 191.617188 C 179.277344 190.367188 180.292969 189.347656 181.542969 189.347656 C 182.789062 189.347656 183.804688 190.367188 183.804688 191.617188 Z M 136.570312 175.636719 C 135.101562 175.636719 133.902344 174.441406 133.902344 172.96875 C 133.902344 171.496094 135.101562 170.300781 136.570312 170.300781 C 138.039062 170.300781 139.234375 171.496094 139.234375 172.96875 C 139.234375 174.441406 138.039062 175.636719 136.570312 175.636719 Z M 156.859375 178.730469 C 156.859375 177.257812 158.054688 176.058594 159.523438 176.058594 C 160.996094 176.058594 162.191406 177.257812 162.191406 178.730469 C 162.191406 180.199219 160.996094 181.398438 159.523438 181.398438 C 158.054688 181.398438 156.859375 180.199219 156.859375 178.730469 Z M 214.992188 207.617188 C 214.335938 207.046875 213.773438 206.371094 213.335938 205.613281 C 209.285156 207.484375 205.003906 208.882812 200.574219 209.746094 C 199.9375 206.027344 196.707031 203.195312 192.8125 203.195312 C 191.8125 203.195312 190.859375 203.382812 189.980469 203.722656 L 184.6875 194.578125 C 185.414062 193.804688 185.863281 192.765625 185.863281 191.617188 C 185.863281 189.226562 183.929688 187.289062 181.542969 187.289062 C 179.378906 187.289062 177.589844 188.878906 177.273438 190.957031 L 157.734375 193.65625 C 156.753906 190.417969 153.75 188.058594 150.199219 188.058594 C 148.625 188.058594 147.160156 188.523438 145.929688 189.320312 C 143.234375 185.894531 140.933594 182.148438 139.085938 178.148438 C 140.226562 177.59375 141.15625 176.671875 141.71875 175.535156 L 153.773438 178.5625 C 153.773438 178.617188 153.769531 178.671875 153.769531 178.730469 C 153.769531 181.910156 156.347656 184.488281 159.523438 184.488281 C 162.703125 184.488281 165.277344 181.910156 165.277344 178.730469 C 165.277344 175.546875 162.703125 172.96875 159.523438 172.96875 C 159.246094 172.96875 158.972656 172.988281 158.707031 173.027344 L 156.359375 166.773438 L 154.046875 167.640625 L 156.394531 173.898438 C 155.535156 174.457031 154.835938 175.238281 154.375 176.160156 L 142.320312 173.136719 C 142.320312 173.078125 142.324219 173.023438 142.324219 172.96875 C 142.324219 169.785156 139.746094 167.207031 136.570312 167.207031 C 133.390625 167.207031 130.816406 169.785156 130.816406 172.96875 C 130.816406 176.148438 133.390625 178.730469 136.570312 178.730469 C 136.582031 178.730469 136.589844 178.730469 136.601562 178.726562 C 138.5625 183.085938 141.054688 187.207031 144.0625 191.003906 C 142.976562 192.355469 142.324219 194.074219 142.324219 195.945312 C 142.324219 200.296875 145.847656 203.828125 150.199219 203.828125 C 152.667969 203.828125 154.867188 202.6875 156.3125 200.910156 L 165.914062 206.464844 C 165.835938 206.785156 165.792969 207.121094 165.792969 207.464844 C 165.792969 209.855469 167.726562 211.792969 170.117188 211.792969 C 172.503906 211.792969 174.4375 209.855469 174.4375 207.464844 C 174.4375 205.074219 172.503906 203.136719 170.117188 203.136719 C 168.964844 203.136719 167.925781 203.589844 167.148438 204.320312 L 157.550781 198.769531 C 157.867188 197.941406 158.050781 197.042969 158.066406 196.105469 L 177.609375 193.40625 C 178.289062 194.902344 179.792969 195.945312 181.542969 195.945312 C 181.886719 195.945312 182.226562 195.898438 182.546875 195.820312 L 187.84375 204.964844 C 186.199219 206.304688 185.105469 208.296875 184.957031 210.550781 C 181.996094 210.285156 179.101562 209.792969 176.289062 209.082031 C 176.070312 209.921875 175.683594 210.695312 175.167969 211.363281 C 178.429688 212.214844 181.777344 212.78125 185.1875 213.054688 C 186.0625 216.453125 189.144531 218.964844 192.8125 218.964844 C 196.757812 218.964844 200.023438 216.058594 200.597656 212.269531 C 205.578125 211.351562 210.414062 209.792969 214.992188 207.617188 " fill-opacity="1" fill-rule="nonzero"/></g><g fill="#051d40" fill-opacity="1"><g transform="translate(116.460934, 258.036237)"><g><path d="M 15.84375 -12.484375 C 15.226562 -13.304688 14.492188 -13.953125 13.640625 -14.421875 C 12.796875 -14.898438 11.972656 -15.140625 11.171875 -15.140625 C 10.296875 -15.140625 9.503906 -14.914062 8.796875 -14.46875 C 8.085938 -14.019531 7.523438 -13.398438 7.109375 -12.609375 C 6.703125 -11.816406 6.5 -10.925781 6.5 -9.9375 C 6.5 -8.945312 6.703125 -8.054688 7.109375 -7.265625 C 7.523438 -6.472656 8.085938 -5.847656 8.796875 -5.390625 C 9.503906 -4.929688 10.296875 -4.703125 11.171875 -4.703125 C 11.921875 -4.703125 12.71875 -4.90625 13.5625 -5.3125 C 14.414062 -5.726562 15.175781 -6.289062 15.84375 -7 L 19.203125 -3.421875 C 18.140625 -2.265625 16.859375 -1.335938 15.359375 -0.640625 C 13.859375 0.046875 12.367188 0.390625 10.890625 0.390625 C 8.929688 0.390625 7.160156 -0.0507812 5.578125 -0.9375 C 4.003906 -1.820312 2.769531 -3.046875 1.875 -4.609375 C 0.976562 -6.179688 0.53125 -7.941406 0.53125 -9.890625 C 0.53125 -11.785156 0.988281 -13.503906 1.90625 -15.046875 C 2.820312 -16.585938 4.082031 -17.796875 5.6875 -18.671875 C 7.289062 -19.546875 9.09375 -19.984375 11.09375 -19.984375 C 12.5625 -19.984375 14.03125 -19.664062 15.5 -19.03125 C 16.976562 -18.40625 18.210938 -17.554688 19.203125 -16.484375 Z M 15.84375 -12.484375 "/></g></g></g><g fill="#051d40" fill-opacity="1"><g transform="translate(135.778297, 258.036237)"><g><path d="M 11.234375 -19.984375 C 13.242188 -19.984375 15.066406 -19.546875 16.703125 -18.671875 C 18.335938 -17.796875 19.613281 -16.585938 20.53125 -15.046875 C 21.457031 -13.503906 21.921875 -11.773438 21.921875 -9.859375 C 21.921875 -7.910156 21.457031 -6.15625 20.53125 -4.59375 C 19.613281 -3.039062 18.335938 -1.820312 16.703125 -0.9375 C 15.066406 -0.0507812 13.242188 0.390625 11.234375 0.390625 C 9.191406 0.390625 7.359375 -0.0507812 5.734375 -0.9375 C 4.109375 -1.820312 2.832031 -3.039062 1.90625 -4.59375 C 0.988281 -6.15625 0.53125 -7.910156 0.53125 -9.859375 C 0.53125 -11.773438 0.988281 -13.503906 1.90625 -15.046875 C 2.832031 -16.585938 4.109375 -17.796875 5.734375 -18.671875 C 7.359375 -19.546875 9.191406 -19.984375 11.234375 -19.984375 Z M 11.3125 -15.140625 C 10.457031 -15.140625 9.660156 -14.90625 8.921875 -14.4375 C 8.179688 -13.976562 7.59375 -13.34375 7.15625 -12.53125 C 6.71875 -11.71875 6.5 -10.816406 6.5 -9.828125 C 6.5 -8.835938 6.71875 -7.929688 7.15625 -7.109375 C 7.59375 -6.285156 8.179688 -5.632812 8.921875 -5.15625 C 9.660156 -4.6875 10.457031 -4.453125 11.3125 -4.453125 C 12.15625 -4.453125 12.9375 -4.6875 13.65625 -5.15625 C 14.375 -5.632812 14.9375 -6.28125 15.34375 -7.09375 C 15.75 -7.90625 15.953125 -8.816406 15.953125 -9.828125 C 15.953125 -10.816406 15.75 -11.71875 15.34375 -12.53125 C 14.9375 -13.34375 14.375 -13.976562 13.65625 -14.4375 C 12.945312 -14.90625 12.164062 -15.140625 11.3125 -15.140625 Z M 11.3125 -15.140625 "/></g></g></g><g fill="#051d40" fill-opacity="1"><g transform="translate(158.231237, 258.036237)"><g><path d="M 7.171875 -8.125 C 7.171875 -7.019531 7.488281 -6.128906 8.125 -5.453125 C 8.757812 -4.785156 9.550781 -4.453125 10.5 -4.453125 C 11.4375 -4.453125 12.203125 -4.78125 12.796875 -5.4375 C 13.390625 -6.101562 13.6875 -7 13.6875 -8.125 L 13.6875 -19.625 L 19.515625 -19.625 L 19.515625 -8.125 C 19.515625 -6.40625 19.144531 -4.90625 18.40625 -3.625 C 17.664062 -2.34375 16.613281 -1.351562 15.25 -0.65625 C 13.894531 0.0390625 12.3125 0.390625 10.5 0.390625 C 8.664062 0.390625 7.054688 0.0390625 5.671875 -0.65625 C 4.296875 -1.351562 3.226562 -2.34375 2.46875 -3.625 C 1.71875 -4.90625 1.34375 -6.40625 1.34375 -8.125 L 1.34375 -19.625 L 7.171875 -19.625 Z M 7.171875 -8.125 "/></g></g></g><g fill="#051d40" fill-opacity="1"><g transform="translate(179.088391, 258.036237)"><g><path d="M 14.953125 -8.6875 L 14.953125 -19.625 L 20.265625 -19.625 L 20.265625 0 L 15.3125 0 L 7 -10.921875 L 7 0 L 1.65625 0 L 1.65625 -19.625 L 6.640625 -19.625 Z M 14.953125 -8.6875 "/></g></g></g><g fill="#051d40" fill-opacity="1"><g transform="translate(201.009399, 258.036237)"><g><path d="M 0.171875 -14.984375 L 0.171875 -19.625 L 17.421875 -19.625 L 17.421875 -14.984375 L 11.703125 -14.984375 L 11.703125 0 L 5.859375 0 L 5.859375 -14.984375 Z M 0.171875 -14.984375 "/></g></g></g><g fill="#051d40" fill-opacity="1"><g transform="translate(218.591002, 258.036237)"><g><path d="M 19.765625 0 L 13.15625 0 L 10.5625 -5.296875 L 7.46875 -5.296875 L 7.46875 0 L 1.65625 0 L 1.65625 -19.625 L 10.8125 -19.625 C 13.4375 -19.625 15.472656 -19.015625 16.921875 -17.796875 C 18.367188 -16.585938 19.09375 -14.875 19.09375 -12.65625 C 19.09375 -11.21875 18.804688 -9.972656 18.234375 -8.921875 C 17.671875 -7.867188 16.859375 -7.03125 15.796875 -6.40625 Z M 7.46875 -15.140625 L 7.46875 -9.765625 L 10.8125 -9.765625 C 11.6875 -9.765625 12.359375 -10 12.828125 -10.46875 C 13.304688 -10.9375 13.546875 -11.609375 13.546875 -12.484375 C 13.546875 -13.347656 13.304688 -14.003906 12.828125 -14.453125 C 12.359375 -14.910156 11.6875 -15.140625 10.8125 -15.140625 Z M 7.46875 -15.140625 "/></g></g></g><g fill="#051d40" fill-opacity="1"><g transform="translate(238.88823, 258.036237)"><g><path d="M 14.0625 -19.625 L 19.859375 -19.625 L 12.796875 -6.21875 L 12.796875 0 L 6.96875 0 L 6.96875 -6.109375 L -0.21875 -19.625 L 5.59375 -19.625 L 9.890625 -11.625 Z M 14.0625 -19.625 "/></g></g></g><g fill="#051d40" fill-opacity="1"><g transform="translate(162.003118, 279.886242)"><g><path d="M 5.984375 -11.203125 C 7.128906 -11.203125 8.148438 -10.960938 9.046875 -10.484375 C 9.941406 -10.015625 10.632812 -9.351562 11.125 -8.5 C 11.625 -7.65625 11.875 -6.6875 11.875 -5.59375 C 11.875 -4.507812 11.617188 -3.539062 11.109375 -2.6875 C 10.609375 -1.84375 9.898438 -1.179688 8.984375 -0.703125 C 8.078125 -0.234375 7.046875 0 5.890625 0 L 1.234375 0 L 1.234375 -11.203125 Z M 6.046875 -2.125 C 6.660156 -2.125 7.21875 -2.269531 7.71875 -2.5625 C 8.21875 -2.863281 8.601562 -3.273438 8.875 -3.796875 C 9.15625 -4.316406 9.296875 -4.910156 9.296875 -5.578125 C 9.296875 -6.253906 9.148438 -6.859375 8.859375 -7.390625 C 8.566406 -7.921875 8.164062 -8.332031 7.65625 -8.625 C 7.144531 -8.925781 6.570312 -9.078125 5.9375 -9.078125 L 3.765625 -9.078125 L 3.765625 -2.125 Z M 6.046875 -2.125 "/></g></g></g><g fill="#051d40" fill-opacity="1"><g transform="translate(175.904162, 279.886242)"><g><path d="M 12.203125 0 L 9.5 0 L 8.625 -2.171875 L 3.4375 -2.171875 L 2.5625 0 L -0.046875 0 L 4.8125 -11.203125 L 7.421875 -11.203125 Z M 6.046875 -8.5625 L 4.265625 -4.203125 L 7.8125 -4.203125 Z M 6.046875 -8.5625 "/></g></g></g><g fill="#051d40" fill-opacity="1"><g transform="translate(189.645241, 279.886242)"><g><path d="M 0.125 -9.0625 L 0.125 -11.203125 L 9.484375 -11.203125 L 9.484375 -9.0625 L 6.0625 -9.0625 L 6.0625 0 L 3.53125 0 L 3.53125 -9.0625 Z M 0.125 -9.0625 "/></g></g></g><g fill="#051d40" fill-opacity="1"><g transform="translate(200.858925, 279.886242)"><g><path d="M 12.203125 0 L 9.5 0 L 8.625 -2.171875 L 3.4375 -2.171875 L 2.5625 0 L -0.046875 0 L 4.8125 -11.203125 L 7.421875 -11.203125 Z M 6.046875 -8.5625 L 4.265625 -4.203125 L 7.8125 -4.203125 Z M 6.046875 -8.5625 "/></g></g></g></svg>